<svg xmlns="http://www.w3.org/2000/svg" viewBox="0 0 24 28" width="24" height="28">
  <path fill="#003087" d="M18.071 8.245c-.218-2.223-1.841-4.225-4.667-4.225H5.485a.732.732 0 0 0-.726.621L1.246 26.24a.549.549 0 0 0 .543.626h4.528l1.321-8.384a.731.731 0 0 1 .726-.621h1.564c4.12 0 7.378-1.68 8.354-6.398.423-2.046.22-3.805-1.211-5.218z" />
  <path fill="#0079C1" d="M21.571 8.245c-.218-2.223-1.841-4.225-4.667-4.225H8.985c-.352 0-.651.252-.716.597L4.769 26.216c-.035.187.108.354.298.354h4.481l1.309-8.309a.731.731 0 0 1 .726-.621h1.564c4.12 0 7.378-1.68 8.354-6.398.423-2.046.22-3.805-1.211-5.218z" />
  <path fill="#00457C" d="M18.071 8.245c-.218-2.223-1.841-4.225-4.667-4.225H8.985c-.352 0-.651.252-.716.597L4.769 26.216c-.035.187.108.354.298.354h4.481l1.309-8.309a.731.731 0 0 1 .726-.621h1.564c4.12 0 7.378-1.68 8.354-6.398.423-2.046.22-3.805-1.211-5.218z" opacity=".2" />
  <path fill="#0079C1" d="M9.71 18.261l1.309-8.309c.065-.345.364-.597.716-.597h4.667c2.826 0 4.449 2.002 4.667 4.225 1.431 1.413 1.634 3.172 1.211 5.218-.976 4.718-4.234 6.398-8.354 6.398h-3.52a.732.732 0 0 1-.726-.621l-.97-6.315z" />
</svg>
